<svg width="15" height="18" viewBox="0 0 15 18" fill="none" xmlns="http://www.w3.org/2000/svg">
<mask id="path-1-outside-1_687_2736" maskUnits="userSpaceOnUse" x="0" y="0" width="15" height="18" fill="#FF2424">
<rect fill="white" width="15" height="18"/>
<path d="M12.4012 7.12717H11.2488V2.86845C11.25 2.44873 11.1037 2.0409 10.8337 1.71105C10.5636 1.3812 10.1856 1.14864 9.76086 1.05106C9.33612 0.953475 8.88953 0.996583 8.49346 1.1734C8.09739 1.35021 7.77504 1.65038 7.57864 2.02526C7.38223 2.40013 7.32328 2.82776 7.41133 3.23886C7.49938 3.64997 7.72929 4.02045 8.06378 4.29029C8.39828 4.56013 8.81777 4.71353 9.2543 4.72562C9.69083 4.73771 10.1188 4.60778 10.4689 4.3569V7.12717H6.01958C5.76575 7.12717 5.51442 7.17524 5.27993 7.26862C5.04544 7.362 4.83238 7.49887 4.65295 7.67141C4.47351 7.84394 4.3312 8.04877 4.23415 8.27418C4.1371 8.49959 4.08721 8.74117 4.08733 8.98512C4.08733 8.99825 4.08733 9.01226 4.08733 9.02539V13.2841H2.93399C2.55235 13.284 2.1792 13.3924 1.86156 13.5957C1.54392 13.799 1.29601 14.0882 1.14905 14.4267C1.0021 14.7652 0.962694 15.1379 1.03579 15.4979C1.10889 15.8579 1.29122 16.1891 1.55981 16.4496C1.8284 16.7102 2.17124 16.8886 2.54511 16.9622C2.91898 17.0358 3.30716 17.0014 3.66074 16.8634C4.01432 16.7253 4.31747 16.4898 4.532 16.1864C4.74652 15.8831 4.86282 15.5255 4.86624 15.1587V14.0336H7.77235C7.51337 14.3689 7.37966 14.7784 7.39287 15.1958C7.40608 15.6132 7.56542 16.0142 7.84513 16.3337C8.12484 16.6533 8.50854 16.8729 8.93418 16.9568C9.35982 17.0408 9.80249 16.9843 10.1906 16.7965C10.5787 16.6087 10.8895 16.3006 11.0727 15.9219C11.256 15.5433 11.301 15.1163 11.2004 14.71C11.0998 14.3037 10.8596 13.942 10.5185 13.6832C10.1775 13.4244 9.75558 13.2838 9.32107 13.2841H4.86624V10.4736C5.238 10.7408 5.6975 10.8702 6.16052 10.8383C6.62354 10.8064 7.05908 10.6151 7.38733 10.2997C7.71558 9.98418 7.91455 9.56558 7.94779 9.12058C7.98102 8.67557 7.84629 8.23395 7.56829 7.87665H10.4689V9.00525C10.4727 9.37178 10.5893 9.72903 10.8039 10.032C11.0185 10.335 11.3217 10.5702 11.6751 10.7079C12.0286 10.8456 12.4165 10.8797 12.7901 10.8059C13.1636 10.7321 13.5061 10.5537 13.7744 10.2932C14.0427 10.0327 14.2248 9.7017 14.2977 9.34191C14.3706 8.98213 14.3311 8.60966 14.1842 8.27141C14.0372 7.93316 13.7895 7.64427 13.472 7.44112C13.1546 7.23797 12.7817 7.12965 12.4003 7.1298L12.4012 7.12717ZM9.3156 3.97515C9.08749 3.97515 8.86451 3.91014 8.67484 3.78835C8.48518 3.66655 8.33735 3.49343 8.25006 3.29088C8.16277 3.08834 8.13992 2.86547 8.18442 2.65044C8.22893 2.43542 8.33877 2.23791 8.50007 2.08289C8.66137 1.92787 8.86687 1.8223 9.0906 1.77953C9.31432 1.73676 9.54622 1.75871 9.75696 1.84261C9.96771 1.92651 10.1478 2.06858 10.2746 2.25087C10.4013 2.43315 10.4689 2.64746 10.4689 2.8667C10.4691 3.01238 10.4393 3.15665 10.3814 3.29128C10.3235 3.42592 10.2386 3.54828 10.1315 3.65137C10.0244 3.75446 9.89723 3.83627 9.75724 3.89213C9.61725 3.94798 9.46718 3.97679 9.3156 3.97691V3.97515ZM10.4689 15.1421C10.4689 15.3613 10.4013 15.5756 10.2746 15.7579C10.1478 15.9402 9.96771 16.0822 9.75696 16.1661C9.54622 16.25 9.31432 16.272 9.0906 16.2292C8.86687 16.1865 8.66137 16.0809 8.50007 15.9259C8.33877 15.7708 8.22893 15.5733 8.18442 15.3583C8.13992 15.1433 8.16277 14.9204 8.25006 14.7179C8.33735 14.5153 8.48518 14.3422 8.67484 14.2204C8.86451 14.0986 9.08749 14.0336 9.3156 14.0336C9.62141 14.0338 9.91462 14.1507 10.1309 14.3585C10.3471 14.5663 10.4687 14.8482 10.4689 15.1421ZM2.93399 16.2496C2.70585 16.2496 2.48283 16.1846 2.29314 16.0628C2.10346 15.9409 1.95563 15.7678 1.86836 15.5652C1.7811 15.3626 1.75831 15.1397 1.80289 14.9246C1.84746 14.7096 1.9574 14.5121 2.11879 14.3571C2.28017 14.2021 2.48576 14.0966 2.70954 14.0539C2.93333 14.0112 3.16526 14.0333 3.37599 14.1174C3.58671 14.2014 3.76678 14.3436 3.8934 14.526C4.02002 14.7084 4.08751 14.9228 4.08733 15.1421C4.08709 15.4359 3.96547 15.7176 3.7492 15.9253C3.53294 16.133 3.23972 16.2496 2.93399 16.2496ZM6.01958 10.0927C5.79143 10.0927 5.56841 10.0277 5.37872 9.90583C5.18904 9.78399 5.04121 9.61082 4.95395 9.40823C4.86668 9.20563 4.84389 8.98271 4.88847 8.76767C4.93304 8.55263 5.04298 8.35512 5.20437 8.20013C5.36576 8.04515 5.57134 7.93964 5.79513 7.89697C6.01891 7.8543 6.25084 7.87637 6.46157 7.9604C6.6723 8.04444 6.85236 8.18665 6.97898 8.36905C7.1056 8.55145 7.17309 8.76585 7.17291 8.98512C7.17267 9.27895 7.05105 9.56066 6.83478 9.76835C6.61852 9.97604 6.3253 10.0927 6.01958 10.0927ZM12.3966 10.0927C12.1685 10.0927 11.9455 10.0277 11.7558 9.90583C11.5661 9.78399 11.4183 9.61082 11.331 9.40823C11.2437 9.20563 11.2209 8.98271 11.2655 8.76767C11.3101 8.55263 11.42 8.35512 11.5814 8.20013C11.7428 8.04515 11.9484 7.93964 12.1722 7.89697C12.396 7.8543 12.6279 7.87637 12.8386 7.9604C13.0493 8.04444 13.2294 8.18665 13.356 8.36905C13.4827 8.55145 13.5501 8.76585 13.55 8.98512C13.5497 9.27819 13.4287 9.55924 13.2134 9.76681C12.9982 9.97437 12.7061 10.0915 12.4012 10.0927H12.3966Z"/>
</mask>
<path d="M12.4012 7.12717H11.2488V2.86845C11.25 2.44873 11.1037 2.0409 10.8337 1.71105C10.5636 1.3812 10.1856 1.14864 9.76086 1.05106C9.33612 0.953475 8.88953 0.996583 8.49346 1.1734C8.09739 1.35021 7.77504 1.65038 7.57864 2.02526C7.38223 2.40013 7.32328 2.82776 7.41133 3.23886C7.49938 3.64997 7.72929 4.02045 8.06378 4.29029C8.39828 4.56013 8.81777 4.71353 9.2543 4.72562C9.69083 4.73771 10.1188 4.60778 10.4689 4.3569V7.12717H6.01958C5.76575 7.12717 5.51442 7.17524 5.27993 7.26862C5.04544 7.362 4.83238 7.49887 4.65295 7.67141C4.47351 7.84394 4.3312 8.04877 4.23415 8.27418C4.1371 8.49959 4.08721 8.74117 4.08733 8.98512C4.08733 8.99825 4.08733 9.01226 4.08733 9.02539V13.2841H2.93399C2.55235 13.284 2.1792 13.3924 1.86156 13.5957C1.54392 13.799 1.29601 14.0882 1.14905 14.4267C1.0021 14.7652 0.962694 15.1379 1.03579 15.4979C1.10889 15.8579 1.29122 16.1891 1.55981 16.4496C1.8284 16.7102 2.17124 16.8886 2.54511 16.9622C2.91898 17.0358 3.30716 17.0014 3.66074 16.8634C4.01432 16.7253 4.31747 16.4898 4.532 16.1864C4.74652 15.8831 4.86282 15.5255 4.86624 15.1587V14.0336H7.77235C7.51337 14.3689 7.37966 14.7784 7.39287 15.1958C7.40608 15.6132 7.56542 16.0142 7.84513 16.3337C8.12484 16.6533 8.50854 16.8729 8.93418 16.9568C9.35982 17.0408 9.80249 16.9843 10.1906 16.7965C10.5787 16.6087 10.8895 16.3006 11.0727 15.9219C11.256 15.5433 11.301 15.1163 11.2004 14.71C11.0998 14.3037 10.8596 13.942 10.5185 13.6832C10.1775 13.4244 9.75558 13.2838 9.32107 13.2841H4.86624V10.4736C5.238 10.7408 5.6975 10.8702 6.16052 10.8383C6.62354 10.8064 7.05908 10.6151 7.38733 10.2997C7.71558 9.98418 7.91455 9.56558 7.94779 9.12058C7.98102 8.67557 7.84629 8.23395 7.56829 7.87665H10.4689V9.00525C10.4727 9.37178 10.5893 9.72903 10.8039 10.032C11.0185 10.335 11.3217 10.5702 11.6751 10.7079C12.0286 10.8456 12.4165 10.8797 12.7901 10.8059C13.1636 10.7321 13.5061 10.5537 13.7744 10.2932C14.0427 10.0327 14.2248 9.7017 14.2977 9.34191C14.3706 8.98213 14.3311 8.60966 14.1842 8.27141C14.0372 7.93316 13.7895 7.64427 13.472 7.44112C13.1546 7.23797 12.7817 7.12965 12.4003 7.1298L12.4012 7.12717ZM9.3156 3.97515C9.08749 3.97515 8.86451 3.91014 8.67484 3.78835C8.48518 3.66655 8.33735 3.49343 8.25006 3.29088C8.16277 3.08834 8.13992 2.86547 8.18442 2.65044C8.22893 2.43542 8.33877 2.23791 8.50007 2.08289C8.66137 1.92787 8.86687 1.8223 9.0906 1.77953C9.31432 1.73676 9.54622 1.75871 9.75696 1.84261C9.96771 1.92651 10.1478 2.06858 10.2746 2.25087C10.4013 2.43315 10.4689 2.64746 10.4689 2.8667C10.4691 3.01238 10.4393 3.15665 10.3814 3.29128C10.3235 3.42592 10.2386 3.54828 10.1315 3.65137C10.0244 3.75446 9.89723 3.83627 9.75724 3.89213C9.61725 3.94798 9.46718 3.97679 9.3156 3.97691V3.97515ZM10.4689 15.1421C10.4689 15.3613 10.4013 15.5756 10.2746 15.7579C10.1478 15.9402 9.96771 16.0822 9.75696 16.1661C9.54622 16.25 9.31432 16.272 9.0906 16.2292C8.86687 16.1865 8.66137 16.0809 8.50007 15.9259C8.33877 15.7708 8.22893 15.5733 8.18442 15.3583C8.13992 15.1433 8.16277 14.9204 8.25006 14.7179C8.33735 14.5153 8.48518 14.3422 8.67484 14.2204C8.86451 14.0986 9.08749 14.0336 9.3156 14.0336C9.62141 14.0338 9.91462 14.1507 10.1309 14.3585C10.3471 14.5663 10.4687 14.8482 10.4689 15.1421ZM2.93399 16.2496C2.70585 16.2496 2.48283 16.1846 2.29314 16.0628C2.10346 15.9409 1.95563 15.7678 1.86836 15.5652C1.7811 15.3626 1.75831 15.1397 1.80289 14.9246C1.84746 14.7096 1.9574 14.5121 2.11879 14.3571C2.28017 14.2021 2.48576 14.0966 2.70954 14.0539C2.93333 14.0112 3.16526 14.0333 3.37599 14.1174C3.58671 14.2014 3.76678 14.3436 3.8934 14.526C4.02002 14.7084 4.08751 14.9228 4.08733 15.1421C4.08709 15.4359 3.96547 15.7176 3.7492 15.9253C3.53294 16.133 3.23972 16.2496 2.93399 16.2496ZM6.01958 10.0927C5.79143 10.0927 5.56841 10.0277 5.37872 9.90583C5.18904 9.78399 5.04121 9.61082 4.95395 9.40823C4.86668 9.20563 4.84389 8.98271 4.88847 8.76767C4.93304 8.55263 5.04298 8.35512 5.20437 8.20013C5.36576 8.04515 5.57134 7.93964 5.79513 7.89697C6.01891 7.8543 6.25084 7.87637 6.46157 7.9604C6.6723 8.04444 6.85236 8.18665 6.97898 8.36905C7.1056 8.55145 7.17309 8.76585 7.17291 8.98512C7.17267 9.27895 7.05105 9.56066 6.83478 9.76835C6.61852 9.97604 6.3253 10.0927 6.01958 10.0927ZM12.3966 10.0927C12.1685 10.0927 11.9455 10.0277 11.7558 9.90583C11.5661 9.78399 11.4183 9.61082 11.331 9.40823C11.2437 9.20563 11.2209 8.98271 11.2655 8.76767C11.3101 8.55263 11.42 8.35512 11.5814 8.20013C11.7428 8.04515 11.9484 7.93964 12.1722 7.89697C12.396 7.8543 12.6279 7.87637 12.8386 7.9604C13.0493 8.04444 13.2294 8.18665 13.356 8.36905C13.4827 8.55145 13.5501 8.76585 13.55 8.98512C13.5497 9.27819 13.4287 9.55924 13.2134 9.76681C12.9982 9.97437 12.7061 10.0915 12.4012 10.0927H12.3966Z" fill="#FF2424"/>
<path d="M12.4012 7.12717H11.2488V2.86845C11.25 2.44873 11.1037 2.0409 10.8337 1.71105C10.5636 1.3812 10.1856 1.14864 9.76086 1.05106C9.33612 0.953475 8.88953 0.996583 8.49346 1.1734C8.09739 1.35021 7.77504 1.65038 7.57864 2.02526C7.38223 2.40013 7.32328 2.82776 7.41133 3.23886C7.49938 3.64997 7.72929 4.02045 8.06378 4.29029C8.39828 4.56013 8.81777 4.71353 9.2543 4.72562C9.69083 4.73771 10.1188 4.60778 10.4689 4.3569V7.12717H6.01958C5.76575 7.12717 5.51442 7.17524 5.27993 7.26862C5.04544 7.362 4.83238 7.49887 4.65295 7.67141C4.47351 7.84394 4.3312 8.04877 4.23415 8.27418C4.1371 8.49959 4.08721 8.74117 4.08733 8.98512C4.08733 8.99825 4.08733 9.01226 4.08733 9.02539V13.2841H2.93399C2.55235 13.284 2.1792 13.3924 1.86156 13.5957C1.54392 13.799 1.29601 14.0882 1.14905 14.4267C1.0021 14.7652 0.962694 15.1379 1.03579 15.4979C1.10889 15.8579 1.29122 16.1891 1.55981 16.4496C1.8284 16.7102 2.17124 16.8886 2.54511 16.9622C2.91898 17.0358 3.30716 17.0014 3.66074 16.8634C4.01432 16.7253 4.31747 16.4898 4.532 16.1864C4.74652 15.8831 4.86282 15.5255 4.86624 15.1587V14.0336H7.77235C7.51337 14.3689 7.37966 14.7784 7.39287 15.1958C7.40608 15.6132 7.56542 16.0142 7.84513 16.3337C8.12484 16.6533 8.50854 16.8729 8.93418 16.9568C9.35982 17.0408 9.80249 16.9843 10.1906 16.7965C10.5787 16.6087 10.8895 16.3006 11.0727 15.9219C11.256 15.5433 11.301 15.1163 11.2004 14.71C11.0998 14.3037 10.8596 13.942 10.5185 13.6832C10.1775 13.4244 9.75558 13.2838 9.32107 13.2841H4.86624V10.4736C5.238 10.7408 5.6975 10.8702 6.16052 10.8383C6.62354 10.8064 7.05908 10.6151 7.38733 10.2997C7.71558 9.98418 7.91455 9.56558 7.94779 9.12058C7.98102 8.67557 7.84629 8.23395 7.56829 7.87665H10.4689V9.00525C10.4727 9.37178 10.5893 9.72903 10.8039 10.032C11.0185 10.335 11.3217 10.5702 11.6751 10.7079C12.0286 10.8456 12.4165 10.8797 12.7901 10.8059C13.1636 10.7321 13.5061 10.5537 13.7744 10.2932C14.0427 10.0327 14.2248 9.7017 14.2977 9.34191C14.3706 8.98213 14.3311 8.60966 14.1842 8.27141C14.0372 7.93316 13.7895 7.64427 13.472 7.44112C13.1546 7.23797 12.7817 7.12965 12.4003 7.1298L12.4012 7.12717ZM9.3156 3.97515C9.08749 3.97515 8.86451 3.91014 8.67484 3.78835C8.48518 3.66655 8.33735 3.49343 8.25006 3.29088C8.16277 3.08834 8.13992 2.86547 8.18442 2.65044C8.22893 2.43542 8.33877 2.23791 8.50007 2.08289C8.66137 1.92787 8.86687 1.8223 9.0906 1.77953C9.31432 1.73676 9.54622 1.75871 9.75696 1.84261C9.96771 1.92651 10.1478 2.06858 10.2746 2.25087C10.4013 2.43315 10.4689 2.64746 10.4689 2.8667C10.4691 3.01238 10.4393 3.15665 10.3814 3.29128C10.3235 3.42592 10.2386 3.54828 10.1315 3.65137C10.0244 3.75446 9.89723 3.83627 9.75724 3.89213C9.61725 3.94798 9.46718 3.97679 9.3156 3.97691V3.97515ZM10.4689 15.1421C10.4689 15.3613 10.4013 15.5756 10.2746 15.7579C10.1478 15.9402 9.96771 16.0822 9.75696 16.1661C9.54622 16.25 9.31432 16.272 9.0906 16.2292C8.86687 16.1865 8.66137 16.0809 8.50007 15.9259C8.33877 15.7708 8.22893 15.5733 8.18442 15.3583C8.13992 15.1433 8.16277 14.9204 8.25006 14.7179C8.33735 14.5153 8.48518 14.3422 8.67484 14.2204C8.86451 14.0986 9.08749 14.0336 9.3156 14.0336C9.62141 14.0338 9.91462 14.1507 10.1309 14.3585C10.3471 14.5663 10.4687 14.8482 10.4689 15.1421ZM2.93399 16.2496C2.70585 16.2496 2.48283 16.1846 2.29314 16.0628C2.10346 15.9409 1.95563 15.7678 1.86836 15.5652C1.7811 15.3626 1.75831 15.1397 1.80289 14.9246C1.84746 14.7096 1.9574 14.5121 2.11879 14.3571C2.28017 14.2021 2.48576 14.0966 2.70954 14.0539C2.93333 14.0112 3.16526 14.0333 3.37599 14.1174C3.58671 14.2014 3.76678 14.3436 3.8934 14.526C4.02002 14.7084 4.08751 14.9228 4.08733 15.1421C4.08709 15.4359 3.96547 15.7176 3.7492 15.9253C3.53294 16.133 3.23972 16.2496 2.93399 16.2496ZM6.01958 10.0927C5.79143 10.0927 5.56841 10.0277 5.37872 9.90583C5.18904 9.78399 5.04121 9.61082 4.95395 9.40823C4.86668 9.20563 4.84389 8.98271 4.88847 8.76767C4.93304 8.55263 5.04298 8.35512 5.20437 8.20013C5.36576 8.04515 5.57134 7.93964 5.79513 7.89697C6.01891 7.8543 6.25084 7.87637 6.46157 7.9604C6.6723 8.04444 6.85236 8.18665 6.97898 8.36905C7.1056 8.55145 7.17309 8.76585 7.17291 8.98512C7.17267 9.27895 7.05105 9.56066 6.83478 9.76835C6.61852 9.97604 6.3253 10.0927 6.01958 10.0927ZM12.3966 10.0927C12.1685 10.0927 11.9455 10.0277 11.7558 9.90583C11.5661 9.78399 11.4183 9.61082 11.331 9.40823C11.2437 9.20563 11.2209 8.98271 11.2655 8.76767C11.3101 8.55263 11.42 8.35512 11.5814 8.20013C11.7428 8.04515 11.9484 7.93964 12.1722 7.89697C12.396 7.8543 12.6279 7.87637 12.8386 7.9604C13.0493 8.04444 13.2294 8.18665 13.356 8.36905C13.4827 8.55145 13.5501 8.76585 13.55 8.98512C13.5497 9.27819 13.4287 9.55924 13.2134 9.76681C12.9982 9.97437 12.7061 10.0915 12.4012 10.0927H12.3966Z" stroke="#FF2424" stroke-width="0.4" mask="url(#path-1-outside-1_687_2736)"/>
</svg>
