<svg width="125" height="34" viewBox="0 0 125 34" fill="none" xmlns="http://www.w3.org/2000/svg">
<g clip-path="url(#clip0_3658_5888)">
<path d="M50.3095 7.91162V26.0493H48.2257V10.9187L44.1247 26.0493H38.9873L34.8809 10.9187V26.0493H32.8025V7.91162H36.0577L40.5402 24.0793H42.5718L47.0543 7.91162H50.3095Z" fill="#FF2424"/>
<path d="M53.8652 7.91162H55.868V10.2968H53.8652V7.91162ZM53.8652 13.0675H55.868V26.0493H53.8652V13.0675Z" fill="#FF2424"/>
<path d="M68.4373 16.6444V26.0493H66.4345V17.2979C66.4345 15.7171 65.7327 14.5515 64.0808 14.5515C62.4289 14.5515 61.1819 15.7115 61.1819 17.6889V26.0679H59.1719V13.0675H61.1819V14.6744C61.5579 14.0545 62.082 13.5453 62.7035 13.196C63.3251 12.8467 64.0232 12.669 64.7304 12.6802C66.7098 12.6802 68.4373 14.0264 68.4373 16.6444Z" fill="#FF2424"/>
<path d="M72.3387 22.3179V14.9332H70.6868V13.0712H72.3639V9.82947H74.3433V13.0675H77.1253V14.9295H74.3469V22.262C74.3469 23.9974 75.0469 24.3865 76.1985 24.3865H77.2512V26.2485H76.1715C74.095 26.2541 72.3387 25.7886 72.3387 22.3179Z" fill="#FF2424"/>
<path d="M88.8685 17.2141V21.9026C88.8685 24.5969 87.1914 26.4366 84.8629 26.4366C83.4341 26.4366 82.1835 25.7886 81.6077 24.8055V26.0493H79.6049V7.91162H81.6077V14.3113C82.1835 13.3282 83.4341 12.6802 84.8629 12.6802C87.1914 12.6802 88.8685 14.5236 88.8685 17.2141ZM86.8657 17.3687C86.8657 15.4788 85.7644 14.5459 84.2367 14.5459C82.7089 14.5459 81.6077 15.4769 81.6077 17.3687V21.7481C81.6077 23.638 82.7089 24.5709 84.2367 24.5709C85.7644 24.5709 86.8657 23.6399 86.8657 21.7481V17.3687Z" fill="#FF2424"/>
<path d="M100.938 13.0675V26.0493H98.9348V24.8055C98.3589 25.7886 97.1065 26.4366 95.6795 26.4366C93.351 26.4366 91.6721 24.5969 91.6721 21.9026V17.2141C91.6721 14.5198 93.351 12.6802 95.6795 12.6802C97.1065 12.6802 98.3589 13.3281 98.9348 14.3113V13.0675H100.938ZM98.9348 21.7481V17.3687C98.9348 15.4788 97.8317 14.5459 96.3057 14.5459C94.7798 14.5459 93.6767 15.4769 93.6767 17.3687V21.7481C93.6767 23.638 94.778 24.5709 96.3057 24.5709C97.8335 24.5709 98.9348 23.6473 98.9348 21.7481Z" fill="#FF2424"/>
<path d="M103.867 21.9026V21.4893H105.87V21.9808C105.87 23.6901 106.847 24.5709 108.648 24.5709C109.8 24.5709 111.078 24.2096 111.078 22.7591C111.078 21.385 110.077 20.9958 108.072 20.3386C105.645 19.5621 104.042 18.8117 104.042 16.4786C104.042 13.5516 106.572 12.6709 108.499 12.6709C110.628 12.6709 112.931 13.7881 112.931 16.7673V17.3631H110.928V16.825C110.928 15.0375 109.651 14.5459 108.449 14.5459C107.147 14.5459 106.095 15.1157 106.095 16.3073C106.095 17.5772 107.322 17.9831 108.974 18.5082C111.603 19.3126 113.131 20.2455 113.131 22.6549C113.131 25.5298 110.777 26.4366 108.574 26.4366C105.744 26.4403 103.867 24.934 103.867 21.9026Z" fill="#FF2424"/>
<path d="M117.737 20.2194V21.6438C117.737 23.4053 118.79 24.5709 120.366 24.5709C121.995 24.5709 122.995 23.6641 122.995 21.9026H125C125 24.96 123.247 26.4366 120.366 26.4366C117.588 26.4366 115.734 24.623 115.734 21.8766V17.2402C115.734 14.4938 117.588 12.6802 120.366 12.6802C123.145 12.6802 125 14.4938 125 17.2402V20.2194H117.737ZM117.737 17.4729V18.6199H122.995V17.4729C122.995 15.7115 121.944 14.5459 120.366 14.5459C118.788 14.5459 117.737 15.7115 117.737 17.4729Z" fill="#FF2424"/>
<path d="M22.5184 13.0079H20.2403V3.94932C20.2427 3.05673 19.9538 2.18944 19.4204 1.48797C18.887 0.786496 18.1403 0.291933 17.3013 0.0844106C16.4624 -0.123112 15.5802 -0.0314371 14.7979 0.344583C14.0156 0.720602 13.3788 1.35894 12.9909 2.15617C12.6029 2.95339 12.4865 3.86281 12.6604 4.73706C12.8344 5.61132 13.2885 6.3992 13.9492 6.97306C14.6099 7.54692 15.4385 7.87312 16.3008 7.89883C17.163 7.92454 18.0084 7.64824 18.7 7.11471V13.0079H9.91136C8.89911 13.0079 7.92833 13.424 7.21256 14.1646C6.4968 14.9053 6.09469 15.9098 6.09469 16.9572C6.09469 16.987 6.09469 17.0149 6.09469 17.0429V26.0996H3.81656C3.0628 26.0993 2.32581 26.3298 1.69843 26.7621C1.07106 27.1944 0.581363 27.8092 0.291049 28.5289C0.000735274 29.2487 -0.0772119 30.0413 0.0670279 30.8068C0.211268 31.5724 0.571242 32.2766 1.1016 32.8308C1.63195 33.385 2.30897 33.7644 3.04734 33.9212C3.78571 34.078 4.55241 34.0052 5.25084 33.7119C5.94928 33.4186 6.5482 32.918 6.97215 32.2731C7.39611 31.6282 7.62613 30.8679 7.63323 30.088V27.6935H13.3645C12.853 28.4066 12.5889 29.2774 12.615 30.1651C12.641 31.0528 12.9558 31.9054 13.5083 32.585C14.0608 33.2646 14.8187 33.7315 15.6594 33.9101C16.5002 34.0887 17.3746 33.9686 18.1411 33.5692C18.9077 33.1698 19.5217 32.5144 19.8836 31.7092C20.2456 30.9039 20.3344 29.9959 20.1358 29.1319C19.9371 28.2679 19.4626 27.4986 18.7889 26.9483C18.1153 26.398 17.2819 26.099 16.4236 26.0996H7.63503V20.1226C8.36948 20.6893 9.27657 20.9635 10.1903 20.8949C11.1041 20.8263 11.9635 20.4196 12.6112 19.7491C13.2589 19.0787 13.6517 18.1893 13.7177 17.2438C13.7836 16.2982 13.5184 15.3597 12.9705 14.5999H18.7V16.9944C18.7071 17.7739 18.9369 18.5338 19.3606 19.1783C19.7843 19.8228 20.3828 20.3232 21.0808 20.6164C21.7788 20.9097 22.5451 20.9826 23.283 20.826C24.021 20.6694 24.6977 20.2904 25.2279 19.7366C25.7581 19.1829 26.118 18.4791 26.2624 17.7141C26.4068 16.949 26.3291 16.1569 26.0392 15.4374C25.7493 14.7179 25.2601 14.1033 24.6333 13.671C24.0064 13.2387 23.2699 13.0079 22.5166 13.0079H22.5184ZM16.4236 6.30474C15.973 6.30511 15.5324 6.16717 15.1575 5.90837C14.7826 5.64957 14.4903 5.28155 14.3176 4.85084C14.1449 4.42014 14.0996 3.94611 14.1873 3.48872C14.275 3.03132 14.4918 2.61112 14.8103 2.28127C15.1288 1.95141 15.5348 1.72671 15.9767 1.6356C16.4187 1.5445 16.8768 1.59107 17.2932 1.76943C17.7096 1.9478 18.0655 2.24993 18.3159 2.63763C18.5663 3.02532 18.7 3.48115 18.7 3.94746C18.6995 4.57235 18.4596 5.17155 18.0329 5.61377C17.6062 6.05598 17.0275 6.30512 16.4236 6.3066V6.30474ZM18.7 30.0489C18.7 30.5152 18.5663 30.971 18.3159 31.3587C18.0655 31.7464 17.7096 32.0485 17.2932 32.2269C16.8768 32.4053 16.4187 32.4518 15.9767 32.3607C15.5348 32.2696 15.1288 32.0449 14.8103 31.7151C14.4918 31.3852 14.275 30.965 14.1873 30.5076C14.0996 30.0502 14.1449 29.5762 14.3176 29.1455C14.4903 28.7148 14.7826 28.3468 15.1575 28.088C15.5324 27.8292 15.973 27.6912 16.4236 27.6916C16.7228 27.6918 17.019 27.753 17.2953 27.8717C17.5716 27.9904 17.8226 28.1643 18.034 28.3833C18.2454 28.6024 18.413 28.8624 18.5272 29.1485C18.6415 29.4346 18.7002 29.7412 18.7 30.0507V30.0489ZM3.81656 32.3987C3.36591 32.3987 2.92539 32.2604 2.55072 32.0013C2.17604 31.7422 1.88405 31.3739 1.71168 30.9431C1.5393 30.5122 1.49429 30.0382 1.58234 29.5809C1.67039 29.1235 1.88754 28.7035 2.20632 28.3739C2.5251 28.0443 2.93119 27.82 3.37322 27.7292C3.81526 27.6385 4.27337 27.6854 4.68961 27.8641C5.10585 28.0428 5.46152 28.3452 5.71163 28.7331C5.96174 29.121 6.09504 29.577 6.09469 30.0433C6.09421 30.6682 5.85398 31.2673 5.4268 31.7089C4.99962 32.1506 4.42045 32.3987 3.81656 32.3987ZM9.91136 19.307C9.46048 19.307 9.01974 19.1686 8.64495 18.9092C8.27016 18.6499 7.97818 18.2813 7.80596 17.8501C7.63375 17.4189 7.58906 16.9446 7.67755 16.4871C7.76603 16.0297 7.98372 15.6096 8.30304 15.2803C8.62236 14.9509 9.02896 14.727 9.47134 14.6369C9.91373 14.5467 10.372 14.5945 10.7882 14.7741C11.2043 14.9536 11.5596 15.2569 11.8091 15.6455C12.0585 16.0342 12.1909 16.4907 12.1895 16.9572C12.189 17.5822 11.9488 18.1815 11.5217 18.6235C11.0946 19.0655 10.5154 19.314 9.91136 19.3145V19.307ZM22.5184 19.307C22.0678 19.3074 21.6271 19.1695 21.2523 18.9107C20.8774 18.6519 20.5851 18.2838 20.4124 17.8531C20.2397 17.4224 20.1944 16.9484 20.2821 16.491C20.3698 16.0336 20.5866 15.6134 20.9051 15.2836C21.2236 14.9537 21.6296 14.729 22.0715 14.6379C22.5135 14.5468 22.9716 14.5934 23.388 14.7717C23.8044 14.9501 24.1603 15.2522 24.4107 15.6399C24.6611 16.0276 24.7948 16.4834 24.7948 16.9498C24.7957 17.5756 24.5565 18.1763 24.1296 18.6197C23.7028 19.0631 23.1233 19.313 22.5184 19.3145V19.307Z" fill="#FF2424"/>
</g>
<defs>
<clipPath id="clip0_3658_5888">
<rect width="125" height="34" fill="white"/>
</clipPath>
</defs>
</svg>
